<?xml version="1.0" encoding="UTF-8" standalone="no"?>
<svg
   width="600"
   height="400"
   viewBox="0 0 2400 1600"
   version="1.1"
   id="svg97"
   sodipodi:docname="ros-od-gr-clean-pictorial.svg"
   inkscape:version="1.3.2 (1:1.3.2+202311252150+091e20ef0f)"
   xml:space="preserve"
   xmlns:inkscape="http://www.inkscape.org/namespaces/inkscape"
   xmlns:sodipodi="http://sodipodi.sourceforge.net/DTD/sodipodi-0.dtd"
   xmlns:xlink="http://www.w3.org/1999/xlink"
   xmlns="http://www.w3.org/2000/svg"
   xmlns:svg="http://www.w3.org/2000/svg"><sodipodi:namedview
     id="namedview97"
     pagecolor="#ffffff"
     bordercolor="#666666"
     borderopacity="1.0"
     inkscape:showpageshadow="2"
     inkscape:pageopacity="0.0"
     inkscape:pagecheckerboard="0"
     inkscape:deskcolor="#d1d1d1"
     inkscape:zoom="1.4743176"
     inkscape:cx="231.29344"
     inkscape:cy="138.3691"
     inkscape:window-width="1920"
     inkscape:window-height="1016"
     inkscape:window-x="0"
     inkscape:window-y="27"
     inkscape:window-maximized="1"
     inkscape:current-layer="svg97" /><defs
     id="defs1"><clipPath
       id="clip540"><rect
         x="0"
         y="0"
         width="2400"
         height="1600"
         id="rect1" /></clipPath></defs><defs
     id="defs2"><clipPath
       id="clip541"><rect
         x="480"
         y="0"
         width="1681"
         height="1600"
         id="rect2" /></clipPath></defs><defs
     id="defs3"><clipPath
       id="clip542"><rect
         x="219"
         y="47"
         width="2134"
         height="1377"
         id="rect3" /></clipPath></defs><polyline
     clip-path="url(#clip540)"
     style="stroke:#000000; stroke-linecap:round; stroke-linejoin:round; stroke-width:4; stroke-opacity:1; fill:none"
     points="219.38,1423.18 2352.76,1423.18 "
     id="polyline3" /><polyline
     clip-path="url(#clip540)"
     style="stroke:#000000; stroke-linecap:round; stroke-linejoin:round; stroke-width:4; stroke-opacity:1; fill:none"
     points="525.785,1423.18 525.785,1404.28 "
     id="polyline4" /><polyline
     clip-path="url(#clip540)"
     style="stroke:#000000; stroke-linecap:round; stroke-linejoin:round; stroke-width:4; stroke-opacity:1; fill:none"
     points="885.825,1423.18 885.825,1404.28 "
     id="polyline5" /><polyline
     clip-path="url(#clip540)"
     style="stroke:#000000; stroke-linecap:round; stroke-linejoin:round; stroke-width:4; stroke-opacity:1; fill:none"
     points="1245.86,1423.18 1245.86,1404.28 "
     id="polyline6" /><polyline
     clip-path="url(#clip540)"
     style="stroke:#000000; stroke-linecap:round; stroke-linejoin:round; stroke-width:4; stroke-opacity:1; fill:none"
     points="1605.9,1423.18 1605.9,1404.28 "
     id="polyline7" /><polyline
     clip-path="url(#clip540)"
     style="stroke:#000000; stroke-linecap:round; stroke-linejoin:round; stroke-width:4; stroke-opacity:1; fill:none"
     points="1965.94,1423.18 1965.94,1404.28 "
     id="polyline8" /><polyline
     clip-path="url(#clip540)"
     style="stroke:#000000; stroke-linecap:round; stroke-linejoin:round; stroke-width:4; stroke-opacity:1; fill:none"
     points="2325.98,1423.18 2325.98,1404.28 "
     id="polyline9" /><path
     clip-path="url(#clip540)"
     d="M488.587 1454.1 Q484.975 1454.1 483.147 1457.66 Q481.341 1461.2 481.341 1468.33 Q481.341 1475.44 483.147 1479.01 Q484.975 1482.55 488.587 1482.55 Q492.221 1482.55 494.026 1479.01 Q495.855 1475.44 495.855 1468.33 Q495.855 1461.2 494.026 1457.66 Q492.221 1454.1 488.587 1454.1 M488.587 1450.39 Q494.397 1450.39 497.452 1455 Q500.531 1459.58 500.531 1468.33 Q500.531 1477.06 497.452 1481.67 Q494.397 1486.25 488.587 1486.25 Q482.776 1486.25 479.698 1481.67 Q476.642 1477.06 476.642 1468.33 Q476.642 1459.58 479.698 1455 Q482.776 1450.39 488.587 1450.39 Z"
     fill="#000000"
     fill-rule="nonzero"
     fill-opacity="1"
     id="path9" /><path
     clip-path="url(#clip540)"
     d="M508.748 1479.7 L513.633 1479.7 L513.633 1485.58 L508.748 1485.58 L508.748 1479.7 Z"
     fill="#000000"
     fill-rule="nonzero"
     fill-opacity="1"
     id="path10" /><path
     clip-path="url(#clip540)"
     d="M533.818 1454.1 Q530.207 1454.1 528.378 1457.66 Q526.572 1461.2 526.572 1468.33 Q526.572 1475.44 528.378 1479.01 Q530.207 1482.55 533.818 1482.55 Q537.452 1482.55 539.258 1479.01 Q541.086 1475.44 541.086 1468.33 Q541.086 1461.2 539.258 1457.66 Q537.452 1454.1 533.818 1454.1 M533.818 1450.39 Q539.628 1450.39 542.683 1455 Q545.762 1459.58 545.762 1468.33 Q545.762 1477.06 542.683 1481.67 Q539.628 1486.25 533.818 1486.25 Q528.008 1486.25 524.929 1481.67 Q521.873 1477.06 521.873 1468.33 Q521.873 1459.58 524.929 1455 Q528.008 1450.39 533.818 1450.39 Z"
     fill="#000000"
     fill-rule="nonzero"
     fill-opacity="1"
     id="path11" /><path
     clip-path="url(#clip540)"
     d="M554.026 1451.02 L572.382 1451.02 L572.382 1454.96 L558.308 1454.96 L558.308 1463.43 Q559.327 1463.08 560.345 1462.92 Q561.364 1462.73 562.382 1462.73 Q568.169 1462.73 571.549 1465.9 Q574.929 1469.08 574.929 1474.49 Q574.929 1480.07 571.456 1483.17 Q567.984 1486.25 561.665 1486.25 Q559.489 1486.25 557.22 1485.88 Q554.975 1485.51 552.568 1484.77 L552.568 1480.07 Q554.651 1481.2 556.873 1481.76 Q559.095 1482.32 561.572 1482.32 Q565.577 1482.32 567.915 1480.21 Q570.253 1478.1 570.253 1474.49 Q570.253 1470.88 567.915 1468.77 Q565.577 1466.67 561.572 1466.67 Q559.697 1466.67 557.822 1467.08 Q555.97 1467.5 554.026 1468.38 L554.026 1451.02 Z"
     fill="#000000"
     fill-rule="nonzero"
     fill-opacity="1"
     id="path12" /><path
     clip-path="url(#clip540)"
     d="M848.128 1454.1 Q844.517 1454.1 842.688 1457.66 Q840.883 1461.2 840.883 1468.33 Q840.883 1475.44 842.688 1479.01 Q844.517 1482.55 848.128 1482.55 Q851.762 1482.55 853.568 1479.01 Q855.396 1475.44 855.396 1468.33 Q855.396 1461.2 853.568 1457.66 Q851.762 1454.1 848.128 1454.1 M848.128 1450.39 Q853.938 1450.39 856.994 1455 Q860.072 1459.58 860.072 1468.33 Q860.072 1477.06 856.994 1481.67 Q853.938 1486.25 848.128 1486.25 Q842.318 1486.25 839.239 1481.67 Q836.184 1477.06 836.184 1468.33 Q836.184 1459.58 839.239 1455 Q842.318 1450.39 848.128 1450.39 Z"
     fill="#000000"
     fill-rule="nonzero"
     fill-opacity="1"
     id="path13" /><path
     clip-path="url(#clip540)"
     d="M868.29 1479.7 L873.174 1479.7 L873.174 1485.58 L868.29 1485.58 L868.29 1479.7 Z"
     fill="#000000"
     fill-rule="nonzero"
     fill-opacity="1"
     id="path14" /><path
     clip-path="url(#clip540)"
     d="M884.169 1481.64 L891.808 1481.64 L891.808 1455.28 L883.498 1456.95 L883.498 1452.69 L891.762 1451.02 L896.438 1451.02 L896.438 1481.64 L904.077 1481.64 L904.077 1485.58 L884.169 1485.58 L884.169 1481.64 Z"
     fill="#000000"
     fill-rule="nonzero"
     fill-opacity="1"
     id="path15" /><path
     clip-path="url(#clip540)"
     d="M923.521 1454.1 Q919.91 1454.1 918.081 1457.66 Q916.276 1461.2 916.276 1468.33 Q916.276 1475.44 918.081 1479.01 Q919.91 1482.55 923.521 1482.55 Q927.155 1482.55 928.961 1479.01 Q930.79 1475.44 930.79 1468.33 Q930.79 1461.2 928.961 1457.66 Q927.155 1454.1 923.521 1454.1 M923.521 1450.39 Q929.331 1450.39 932.387 1455 Q935.465 1459.58 935.465 1468.33 Q935.465 1477.06 932.387 1481.67 Q929.331 1486.25 923.521 1486.25 Q917.711 1486.25 914.632 1481.67 Q911.577 1477.06 911.577 1468.33 Q911.577 1459.58 914.632 1455 Q917.711 1450.39 923.521 1450.39 Z"
     fill="#000000"
     fill-rule="nonzero"
     fill-opacity="1"
     id="path16" /><path
     clip-path="url(#clip540)"
     d="M1208.66 1454.1 Q1205.05 1454.1 1203.23 1457.66 Q1201.42 1461.2 1201.42 1468.33 Q1201.42 1475.44 1203.23 1479.01 Q1205.05 1482.55 1208.66 1482.55 Q1212.3 1482.55 1214.1 1479.01 Q1215.93 1475.44 1215.93 1468.33 Q1215.93 1461.2 1214.1 1457.66 Q1212.3 1454.1 1208.66 1454.1 M1208.66 1450.39 Q1214.47 1450.39 1217.53 1455 Q1220.61 1459.58 1220.61 1468.33 Q1220.61 1477.06 1217.53 1481.67 Q1214.47 1486.25 1208.66 1486.25 Q1202.85 1486.25 1199.78 1481.67 Q1196.72 1477.06 1196.72 1468.33 Q1196.72 1459.58 1199.78 1455 Q1202.85 1450.39 1208.66 1450.39 Z"
     fill="#000000"
     fill-rule="nonzero"
     fill-opacity="1"
     id="path17" /><path
     clip-path="url(#clip540)"
     d="M1228.83 1479.7 L1233.71 1479.7 L1233.71 1485.58 L1228.83 1485.58 L1228.83 1479.7 Z"
     fill="#000000"
     fill-rule="nonzero"
     fill-opacity="1"
     id="path18" /><path
     clip-path="url(#clip540)"
     d="M1244.71 1481.64 L1252.35 1481.64 L1252.35 1455.28 L1244.03 1456.95 L1244.03 1452.69 L1252.3 1451.02 L1256.97 1451.02 L1256.97 1481.64 L1264.61 1481.64 L1264.61 1485.58 L1244.71 1485.58 L1244.71 1481.64 Z"
     fill="#000000"
     fill-rule="nonzero"
     fill-opacity="1"
     id="path19" /><path
     clip-path="url(#clip540)"
     d="M1274.1 1451.02 L1292.46 1451.02 L1292.46 1454.96 L1278.39 1454.96 L1278.39 1463.43 Q1279.41 1463.08 1280.42 1462.92 Q1281.44 1462.73 1282.46 1462.73 Q1288.25 1462.73 1291.63 1465.9 Q1295.01 1469.08 1295.01 1474.49 Q1295.01 1480.07 1291.53 1483.17 Q1288.06 1486.25 1281.74 1486.25 Q1279.57 1486.25 1277.3 1485.88 Q1275.05 1485.51 1272.65 1484.77 L1272.65 1480.07 Q1274.73 1481.2 1276.95 1481.76 Q1279.17 1482.32 1281.65 1482.32 Q1285.66 1482.32 1287.99 1480.21 Q1290.33 1478.1 1290.33 1474.49 Q1290.33 1470.88 1287.99 1468.77 Q1285.66 1466.67 1281.65 1466.67 Q1279.78 1466.67 1277.9 1467.08 Q1276.05 1467.5 1274.1 1468.38 L1274.1 1451.02 Z"
     fill="#000000"
     fill-rule="nonzero"
     fill-opacity="1"
     id="path20" /><path
     clip-path="url(#clip540)"
     d="M1568.21 1454.1 Q1564.6 1454.1 1562.77 1457.66 Q1560.96 1461.2 1560.96 1468.33 Q1560.96 1475.44 1562.77 1479.01 Q1564.6 1482.55 1568.21 1482.55 Q1571.84 1482.55 1573.65 1479.01 Q1575.47 1475.44 1575.47 1468.33 Q1575.47 1461.2 1573.65 1457.66 Q1571.84 1454.1 1568.21 1454.1 M1568.21 1450.39 Q1574.02 1450.39 1577.07 1455 Q1580.15 1459.58 1580.15 1468.33 Q1580.15 1477.06 1577.07 1481.67 Q1574.02 1486.25 1568.21 1486.25 Q1562.4 1486.25 1559.32 1481.67 Q1556.26 1477.06 1556.26 1468.33 Q1556.26 1459.58 1559.32 1455 Q1562.4 1450.39 1568.21 1450.39 Z"
     fill="#000000"
     fill-rule="nonzero"
     fill-opacity="1"
     id="path21" /><path
     clip-path="url(#clip540)"
     d="M1588.37 1479.7 L1593.25 1479.7 L1593.25 1485.58 L1588.37 1485.58 L1588.37 1479.7 Z"
     fill="#000000"
     fill-rule="nonzero"
     fill-opacity="1"
     id="path22" /><path
     clip-path="url(#clip540)"
     d="M1607.47 1481.64 L1623.78 1481.64 L1623.78 1485.58 L1601.84 1485.58 L1601.84 1481.64 Q1604.5 1478.89 1609.09 1474.26 Q1613.69 1469.61 1614.87 1468.27 Q1617.12 1465.74 1618 1464.01 Q1618.9 1462.25 1618.9 1460.56 Q1618.9 1457.8 1616.96 1456.07 Q1615.03 1454.33 1611.93 1454.33 Q1609.73 1454.33 1607.28 1455.09 Q1604.85 1455.86 1602.07 1457.41 L1602.07 1452.69 Q1604.9 1451.55 1607.35 1450.97 Q1609.8 1450.39 1611.84 1450.39 Q1617.21 1450.39 1620.41 1453.08 Q1623.6 1455.77 1623.6 1460.26 Q1623.6 1462.39 1622.79 1464.31 Q1622 1466.2 1619.9 1468.8 Q1619.32 1469.47 1616.22 1472.69 Q1613.11 1475.88 1607.47 1481.64 Z"
     fill="#000000"
     fill-rule="nonzero"
     fill-opacity="1"
     id="path23" /><path
     clip-path="url(#clip540)"
     d="M1643.6 1454.1 Q1639.99 1454.1 1638.16 1457.66 Q1636.35 1461.2 1636.35 1468.33 Q1636.35 1475.44 1638.16 1479.01 Q1639.99 1482.55 1643.6 1482.55 Q1647.23 1482.55 1649.04 1479.01 Q1650.87 1475.44 1650.87 1468.33 Q1650.87 1461.2 1649.04 1457.66 Q1647.23 1454.1 1643.6 1454.1 M1643.6 1450.39 Q1649.41 1450.39 1652.47 1455 Q1655.54 1459.58 1655.54 1468.33 Q1655.54 1477.06 1652.47 1481.67 Q1649.41 1486.25 1643.6 1486.25 Q1637.79 1486.25 1634.71 1481.67 Q1631.65 1477.06 1631.65 1468.33 Q1631.65 1459.58 1634.71 1455 Q1637.79 1450.39 1643.6 1450.39 Z"
     fill="#000000"
     fill-rule="nonzero"
     fill-opacity="1"
     id="path24" /><path
     clip-path="url(#clip540)"
     d="M1928.74 1454.1 Q1925.13 1454.1 1923.3 1457.66 Q1921.5 1461.2 1921.5 1468.33 Q1921.5 1475.44 1923.3 1479.01 Q1925.13 1482.55 1928.74 1482.55 Q1932.38 1482.55 1934.18 1479.01 Q1936.01 1475.44 1936.01 1468.33 Q1936.01 1461.2 1934.18 1457.66 Q1932.38 1454.1 1928.74 1454.1 M1928.74 1450.39 Q1934.55 1450.39 1937.61 1455 Q1940.69 1459.58 1940.69 1468.33 Q1940.69 1477.06 1937.61 1481.67 Q1934.55 1486.25 1928.74 1486.25 Q1922.93 1486.25 1919.85 1481.67 Q1916.8 1477.06 1916.8 1468.33 Q1916.8 1459.58 1919.85 1455 Q1922.93 1450.39 1928.74 1450.39 Z"
     fill="#000000"
     fill-rule="nonzero"
     fill-opacity="1"
     id="path25" /><path
     clip-path="url(#clip540)"
     d="M1948.9 1479.7 L1953.79 1479.7 L1953.79 1485.58 L1948.9 1485.58 L1948.9 1479.7 Z"
     fill="#000000"
     fill-rule="nonzero"
     fill-opacity="1"
     id="path26" /><path
     clip-path="url(#clip540)"
     d="M1968 1481.64 L1984.32 1481.64 L1984.32 1485.58 L1962.38 1485.58 L1962.38 1481.64 Q1965.04 1478.89 1969.62 1474.26 Q1974.23 1469.61 1975.41 1468.27 Q1977.65 1465.74 1978.53 1464.01 Q1979.44 1462.25 1979.44 1460.56 Q1979.44 1457.8 1977.49 1456.07 Q1975.57 1454.33 1972.47 1454.33 Q1970.27 1454.33 1967.82 1455.09 Q1965.39 1455.86 1962.61 1457.41 L1962.61 1452.69 Q1965.43 1451.55 1967.89 1450.97 Q1970.34 1450.39 1972.38 1450.39 Q1977.75 1450.39 1980.94 1453.08 Q1984.14 1455.77 1984.14 1460.26 Q1984.14 1462.39 1983.33 1464.31 Q1982.54 1466.2 1980.43 1468.8 Q1979.85 1469.47 1976.75 1472.69 Q1973.65 1475.88 1968 1481.64 Z"
     fill="#000000"
     fill-rule="nonzero"
     fill-opacity="1"
     id="path27" /><path
     clip-path="url(#clip540)"
     d="M1994.18 1451.02 L2012.54 1451.02 L2012.54 1454.96 L1998.46 1454.96 L1998.46 1463.43 Q1999.48 1463.08 2000.5 1462.92 Q2001.52 1462.73 2002.54 1462.73 Q2008.33 1462.73 2011.71 1465.9 Q2015.09 1469.08 2015.09 1474.49 Q2015.09 1480.07 2011.61 1483.17 Q2008.14 1486.25 2001.82 1486.25 Q1999.65 1486.25 1997.38 1485.88 Q1995.13 1485.51 1992.72 1484.77 L1992.72 1480.07 Q1994.81 1481.2 1997.03 1481.76 Q1999.25 1482.32 2001.73 1482.32 Q2005.73 1482.32 2008.07 1480.21 Q2010.41 1478.1 2010.41 1474.49 Q2010.41 1470.88 2008.07 1468.77 Q2005.73 1466.67 2001.73 1466.67 Q1999.85 1466.67 1997.98 1467.08 Q1996.13 1467.5 1994.18 1468.38 L1994.18 1451.02 Z"
     fill="#000000"
     fill-rule="nonzero"
     fill-opacity="1"
     id="path28" /><path
     clip-path="url(#clip540)"
     d="M2288.28 1454.1 Q2284.67 1454.1 2282.84 1457.66 Q2281.04 1461.2 2281.04 1468.33 Q2281.04 1475.44 2282.84 1479.01 Q2284.67 1482.55 2288.28 1482.55 Q2291.92 1482.55 2293.72 1479.01 Q2295.55 1475.44 2295.55 1468.33 Q2295.55 1461.2 2293.72 1457.66 Q2291.92 1454.1 2288.28 1454.1 M2288.28 1450.39 Q2294.09 1450.39 2297.15 1455 Q2300.23 1459.58 2300.23 1468.33 Q2300.23 1477.06 2297.15 1481.67 Q2294.09 1486.25 2288.28 1486.25 Q2282.47 1486.25 2279.4 1481.67 Q2276.34 1477.06 2276.34 1468.33 Q2276.34 1459.58 2279.4 1455 Q2282.47 1450.39 2288.28 1450.39 Z"
     fill="#000000"
     fill-rule="nonzero"
     fill-opacity="1"
     id="path29" /><path
     clip-path="url(#clip540)"
     d="M2308.45 1479.7 L2313.33 1479.7 L2313.33 1485.58 L2308.45 1485.58 L2308.45 1479.7 Z"
     fill="#000000"
     fill-rule="nonzero"
     fill-opacity="1"
     id="path30" /><path
     clip-path="url(#clip540)"
     d="M2337.68 1466.95 Q2341.04 1467.66 2342.91 1469.93 Q2344.81 1472.2 2344.81 1475.53 Q2344.81 1480.65 2341.29 1483.45 Q2337.77 1486.25 2331.29 1486.25 Q2329.12 1486.25 2326.8 1485.81 Q2324.51 1485.39 2322.06 1484.54 L2322.06 1480.02 Q2324 1481.16 2326.32 1481.74 Q2328.63 1482.32 2331.15 1482.32 Q2335.55 1482.32 2337.84 1480.58 Q2340.16 1478.84 2340.16 1475.53 Q2340.16 1472.48 2338.01 1470.77 Q2335.88 1469.03 2332.06 1469.03 L2328.03 1469.03 L2328.03 1465.19 L2332.24 1465.19 Q2335.69 1465.19 2337.52 1463.82 Q2339.35 1462.43 2339.35 1459.84 Q2339.35 1457.18 2337.45 1455.77 Q2335.58 1454.33 2332.06 1454.33 Q2330.14 1454.33 2327.94 1454.75 Q2325.74 1455.16 2323.1 1456.04 L2323.1 1451.88 Q2325.76 1451.14 2328.08 1450.77 Q2330.41 1450.39 2332.47 1450.39 Q2337.8 1450.39 2340.9 1452.83 Q2344 1455.23 2344 1459.35 Q2344 1462.22 2342.36 1464.21 Q2340.71 1466.18 2337.68 1466.95 Z"
     fill="#000000"
     fill-rule="nonzero"
     fill-opacity="1"
     id="path31" /><path
     clip-path="url(#clip540)"
     d="M2363.68 1454.1 Q2360.07 1454.1 2358.24 1457.66 Q2356.43 1461.2 2356.43 1468.33 Q2356.43 1475.44 2358.24 1479.01 Q2360.07 1482.55 2363.68 1482.55 Q2367.31 1482.55 2369.12 1479.01 Q2370.95 1475.44 2370.95 1468.33 Q2370.95 1461.2 2369.12 1457.66 Q2367.31 1454.1 2363.68 1454.1 M2363.68 1450.39 Q2369.49 1450.39 2372.54 1455 Q2375.62 1459.58 2375.62 1468.33 Q2375.62 1477.06 2372.54 1481.67 Q2369.49 1486.25 2363.68 1486.25 Q2357.87 1486.25 2354.79 1481.67 Q2351.73 1477.06 2351.73 1468.33 Q2351.73 1459.58 2354.79 1455 Q2357.87 1450.39 2363.68 1450.39 Z"
     fill="#000000"
     fill-rule="nonzero"
     fill-opacity="1"
     id="path32" /><path
     clip-path="url(#clip540)"
     d="M1221.11 1524.88 Q1214.1 1524.88 1209.97 1530.1 Q1205.86 1535.32 1205.86 1544.33 Q1205.86 1553.31 1209.97 1558.53 Q1214.1 1563.75 1221.11 1563.75 Q1228.11 1563.75 1232.18 1558.53 Q1236.29 1553.31 1236.29 1544.33 Q1236.29 1535.32 1232.18 1530.1 Q1228.11 1524.88 1221.11 1524.88 M1221.11 1519.66 Q1231.1 1519.66 1237.08 1526.38 Q1243.07 1533.06 1243.07 1544.33 Q1243.07 1555.57 1237.08 1562.28 Q1231.1 1568.97 1221.11 1568.97 Q1211.08 1568.97 1205.06 1562.28 Q1199.08 1555.6 1199.08 1544.33 Q1199.08 1533.06 1205.06 1526.38 Q1211.08 1519.66 1221.11 1519.66 Z"
     fill="#000000"
     fill-rule="nonzero"
     fill-opacity="1"
     id="path33" /><path
     clip-path="url(#clip540)"
     d="M1259.55 1525.81 L1259.55 1562.76 L1267.32 1562.76 Q1277.16 1562.76 1281.71 1558.3 Q1286.29 1553.85 1286.29 1544.24 Q1286.29 1534.69 1281.71 1530.26 Q1277.16 1525.81 1267.32 1525.81 L1259.55 1525.81 M1253.13 1520.52 L1266.33 1520.52 Q1280.15 1520.52 1286.61 1526.28 Q1293.07 1532.01 1293.07 1544.24 Q1293.07 1556.52 1286.58 1562.28 Q1280.08 1568.04 1266.33 1568.04 L1253.13 1568.04 L1253.13 1520.52 Z"
     fill="#000000"
     fill-rule="nonzero"
     fill-opacity="1"
     id="path34" /><path
     clip-path="url(#clip540)"
     d="M1310.77 1553.24 Q1307.97 1553.24 1306.34 1554.9 Q1304.72 1556.59 1304.72 1559.48 Q1304.72 1562.35 1306.34 1564 Q1307.97 1565.69 1310.77 1565.69 Q1313.54 1565.69 1315.16 1564 Q1316.78 1562.35 1316.78 1559.48 Q1316.78 1556.59 1315.16 1554.9 Q1313.54 1553.24 1310.77 1553.24 M1318.98 1541.98 L1318.98 1545.25 Q1317.42 1544.62 1315.83 1544.3 Q1314.24 1543.95 1312.68 1543.95 Q1308.6 1543.95 1306.44 1546.34 Q1304.27 1548.76 1303.96 1553.63 Q1305.17 1552.07 1306.98 1551.24 Q1308.83 1550.41 1310.99 1550.41 Q1315.6 1550.41 1318.28 1552.83 Q1320.95 1555.28 1320.95 1559.48 Q1320.95 1563.52 1318.15 1566.04 Q1315.38 1568.52 1310.77 1568.52 Q1305.45 1568.52 1302.65 1564.99 Q1299.85 1561.46 1299.85 1554.71 Q1299.85 1548.41 1303.29 1544.68 Q1306.72 1540.93 1312.52 1540.93 Q1314.08 1540.93 1315.67 1541.18 Q1317.26 1541.47 1318.98 1541.98 Z"
     fill="#000000"
     fill-rule="nonzero"
     fill-opacity="1"
     id="path35" /><path
     clip-path="url(#clip540)"
     d="M1341.2 1546.5 Q1339.6 1543.76 1336.39 1543.76 Q1333.17 1543.76 1331.58 1546.5 Q1329.96 1549.23 1329.96 1554.71 Q1329.96 1560.21 1331.58 1562.95 Q1333.17 1565.69 1336.39 1565.69 Q1339.6 1565.69 1341.2 1562.95 Q1342.82 1560.21 1342.82 1554.71 Q1342.82 1549.23 1341.2 1546.5 M1336.39 1540.93 Q1341.51 1540.93 1344.22 1544.46 Q1346.92 1547.99 1346.92 1554.71 Q1346.92 1561.46 1344.22 1564.99 Q1341.51 1568.52 1336.39 1568.52 Q1331.23 1568.52 1328.53 1564.99 Q1325.82 1561.46 1325.82 1554.71 Q1325.82 1547.99 1328.53 1544.46 Q1331.23 1540.93 1336.39 1540.93 Z"
     fill="#000000"
     fill-rule="nonzero"
     fill-opacity="1"
     id="path36" /><path
     clip-path="url(#clip540)"
     d="M1367.33 1546.5 Q1365.73 1543.76 1362.52 1543.76 Q1359.31 1543.76 1357.71 1546.5 Q1356.09 1549.23 1356.09 1554.71 Q1356.09 1560.21 1357.71 1562.95 Q1359.31 1565.69 1362.52 1565.69 Q1365.73 1565.69 1367.33 1562.95 Q1368.95 1560.21 1368.95 1554.71 Q1368.95 1549.23 1367.33 1546.5 M1362.52 1540.93 Q1367.64 1540.93 1370.35 1544.46 Q1373.06 1547.99 1373.06 1554.71 Q1373.06 1561.46 1370.35 1564.99 Q1367.64 1568.52 1362.52 1568.52 Q1357.36 1568.52 1354.66 1564.99 Q1351.95 1561.46 1351.95 1554.71 Q1351.95 1547.99 1354.66 1544.46 Q1357.36 1540.93 1362.52 1540.93 Z"
     fill="#000000"
     fill-rule="nonzero"
     fill-opacity="1"
     id="path37" /><polyline
     clip-path="url(#clip540)"
     style="stroke:#000000; stroke-linecap:round; stroke-linejoin:round; stroke-width:4; stroke-opacity:1; fill:none"
     points="219.38,1423.18 219.38,47.2441 "
     id="polyline37" /><polyline
     clip-path="url(#clip540)"
     style="stroke:#000000; stroke-linecap:round; stroke-linejoin:round; stroke-width:4; stroke-opacity:1; fill:none"
     points="219.38,1423.18 238.278,1423.18 "
     id="polyline38" /><polyline
     clip-path="url(#clip540)"
     style="stroke:#000000; stroke-linecap:round; stroke-linejoin:round; stroke-width:4; stroke-opacity:1; fill:none"
     points="219.38,964.535 238.278,964.535 "
     id="polyline39" /><polyline
     clip-path="url(#clip540)"
     style="stroke:#000000; stroke-linecap:round; stroke-linejoin:round; stroke-width:4; stroke-opacity:1; fill:none"
     points="219.38,505.889 238.278,505.889 "
     id="polyline40" /><polyline
     clip-path="url(#clip540)"
     style="stroke:#000000; stroke-linecap:round; stroke-linejoin:round; stroke-width:4; stroke-opacity:1; fill:none"
     points="219.38,47.2441 238.278,47.2441 "
     id="polyline41" /><path
     clip-path="url(#clip540)"
     d="M126.205 1408.98 Q122.593 1408.98 120.765 1412.54 Q118.959 1416.08 118.959 1423.21 Q118.959 1430.32 120.765 1433.89 Q122.593 1437.43 126.205 1437.43 Q129.839 1437.43 131.644 1433.89 Q133.473 1430.32 133.473 1423.21 Q133.473 1416.08 131.644 1412.54 Q129.839 1408.98 126.205 1408.98 M126.205 1405.27 Q132.015 1405.27 135.07 1409.88 Q138.149 1414.46 138.149 1423.21 Q138.149 1431.94 135.07 1436.55 Q132.015 1441.13 126.205 1441.13 Q120.394 1441.13 117.316 1436.55 Q114.26 1431.94 114.26 1423.21 Q114.26 1414.46 117.316 1409.88 Q120.394 1405.27 126.205 1405.27 Z"
     fill="#000000"
     fill-rule="nonzero"
     fill-opacity="1"
     id="path41" /><path
     clip-path="url(#clip540)"
     d="M146.366 1434.58 L151.251 1434.58 L151.251 1440.46 L146.366 1440.46 L146.366 1434.58 Z"
     fill="#000000"
     fill-rule="nonzero"
     fill-opacity="1"
     id="path42" /><path
     clip-path="url(#clip540)"
     d="M171.436 1408.98 Q167.825 1408.98 165.996 1412.54 Q164.19 1416.08 164.19 1423.21 Q164.19 1430.32 165.996 1433.89 Q167.825 1437.43 171.436 1437.43 Q175.07 1437.43 176.876 1433.89 Q178.704 1430.32 178.704 1423.21 Q178.704 1416.08 176.876 1412.54 Q175.07 1408.98 171.436 1408.98 M171.436 1405.27 Q177.246 1405.27 180.301 1409.88 Q183.38 1414.46 183.38 1423.21 Q183.38 1431.94 180.301 1436.55 Q177.246 1441.13 171.436 1441.13 Q165.626 1441.13 162.547 1436.55 Q159.491 1431.94 159.491 1423.21 Q159.491 1414.46 162.547 1409.88 Q165.626 1405.27 171.436 1405.27 Z"
     fill="#000000"
     fill-rule="nonzero"
     fill-opacity="1"
     id="path43" /><path
     clip-path="url(#clip540)"
     d="M127.2 950.333 Q123.589 950.333 121.76 953.898 Q119.955 957.44 119.955 964.569 Q119.955 971.676 121.76 975.241 Q123.589 978.782 127.2 978.782 Q130.834 978.782 132.64 975.241 Q134.468 971.676 134.468 964.569 Q134.468 957.44 132.64 953.898 Q130.834 950.333 127.2 950.333 M127.2 946.63 Q133.01 946.63 136.066 951.236 Q139.144 955.819 139.144 964.569 Q139.144 973.296 136.066 977.903 Q133.01 982.486 127.2 982.486 Q121.39 982.486 118.311 977.903 Q115.256 973.296 115.256 964.569 Q115.256 955.819 118.311 951.236 Q121.39 946.63 127.2 946.63 Z"
     fill="#000000"
     fill-rule="nonzero"
     fill-opacity="1"
     id="path44" /><path
     clip-path="url(#clip540)"
     d="M147.362 975.935 L152.246 975.935 L152.246 981.815 L147.362 981.815 L147.362 975.935 Z"
     fill="#000000"
     fill-rule="nonzero"
     fill-opacity="1"
     id="path45" /><path
     clip-path="url(#clip540)"
     d="M162.477 947.255 L180.834 947.255 L180.834 951.19 L166.76 951.19 L166.76 959.662 Q167.778 959.315 168.797 959.153 Q169.815 958.967 170.834 958.967 Q176.621 958.967 180.001 962.139 Q183.38 965.31 183.38 970.727 Q183.38 976.305 179.908 979.407 Q176.436 982.486 170.116 982.486 Q167.94 982.486 165.672 982.116 Q163.427 981.745 161.019 981.004 L161.019 976.305 Q163.102 977.44 165.325 977.995 Q167.547 978.551 170.024 978.551 Q174.028 978.551 176.366 976.444 Q178.704 974.338 178.704 970.727 Q178.704 967.116 176.366 965.009 Q174.028 962.903 170.024 962.903 Q168.149 962.903 166.274 963.319 Q164.422 963.736 162.477 964.616 L162.477 947.255 Z"
     fill="#000000"
     fill-rule="nonzero"
     fill-opacity="1"
     id="path46" /><path
     clip-path="url(#clip540)"
     d="M117.015 519.234 L124.654 519.234 L124.654 492.869 L116.343 494.535 L116.343 490.276 L124.607 488.609 L129.283 488.609 L129.283 519.234 L136.922 519.234 L136.922 523.169 L117.015 523.169 L117.015 519.234 Z"
     fill="#000000"
     fill-rule="nonzero"
     fill-opacity="1"
     id="path47" /><path
     clip-path="url(#clip540)"
     d="M146.366 517.29 L151.251 517.29 L151.251 523.169 L146.366 523.169 L146.366 517.29 Z"
     fill="#000000"
     fill-rule="nonzero"
     fill-opacity="1"
     id="path48" /><path
     clip-path="url(#clip540)"
     d="M171.436 491.688 Q167.825 491.688 165.996 495.253 Q164.19 498.794 164.19 505.924 Q164.19 513.031 165.996 516.595 Q167.825 520.137 171.436 520.137 Q175.07 520.137 176.876 516.595 Q178.704 513.031 178.704 505.924 Q178.704 498.794 176.876 495.253 Q175.07 491.688 171.436 491.688 M171.436 487.984 Q177.246 487.984 180.301 492.591 Q183.38 497.174 183.38 505.924 Q183.38 514.651 180.301 519.257 Q177.246 523.841 171.436 523.841 Q165.626 523.841 162.547 519.257 Q159.491 514.651 159.491 505.924 Q159.491 497.174 162.547 492.591 Q165.626 487.984 171.436 487.984 Z"
     fill="#000000"
     fill-rule="nonzero"
     fill-opacity="1"
     id="path49" /><path
     clip-path="url(#clip540)"
     d="M118.01 60.5889 L125.649 60.5889 L125.649 34.2233 L117.339 35.89 L117.339 31.6308 L125.603 29.9641 L130.279 29.9641 L130.279 60.5889 L137.917 60.5889 L137.917 64.5241 L118.01 64.5241 L118.01 60.5889 Z"
     fill="#000000"
     fill-rule="nonzero"
     fill-opacity="1"
     id="path50" /><path
     clip-path="url(#clip540)"
     d="M147.362 58.6445 L152.246 58.6445 L152.246 64.5241 L147.362 64.5241 L147.362 58.6445 Z"
     fill="#000000"
     fill-rule="nonzero"
     fill-opacity="1"
     id="path51" /><path
     clip-path="url(#clip540)"
     d="M162.477 29.9641 L180.834 29.9641 L180.834 33.8993 L166.76 33.8993 L166.76 42.3714 Q167.778 42.0242 168.797 41.8622 Q169.815 41.677 170.834 41.677 Q176.621 41.677 180.001 44.8483 Q183.38 48.0196 183.38 53.4362 Q183.38 59.0149 179.908 62.1167 Q176.436 65.1954 170.116 65.1954 Q167.94 65.1954 165.672 64.825 Q163.427 64.4547 161.019 63.7139 L161.019 59.0149 Q163.102 60.1491 165.325 60.7047 Q167.547 61.2602 170.024 61.2602 Q174.028 61.2602 176.366 59.1538 Q178.704 57.0473 178.704 53.4362 Q178.704 49.8251 176.366 47.7186 Q174.028 45.6122 170.024 45.6122 Q168.149 45.6122 166.274 46.0288 Q164.422 46.4455 162.477 47.3251 L162.477 29.9641 Z"
     fill="#000000"
     fill-rule="nonzero"
     fill-opacity="1"
     id="path52" /><path
     clip-path="url(#clip540)"
     d="M45.7664 981.294 Q39.4007 981.294 35.8996 983.936 Q32.3984 986.546 32.3984 991.288 Q32.3984 995.999 35.8996 998.641 Q39.4007 1001.25 45.7664 1001.25 Q52.1003 1001.25 55.6014 998.641 Q59.1026 995.999 59.1026 991.288 Q59.1026 986.546 55.6014 983.936 Q52.1003 981.294 45.7664 981.294 M59.58 975.438 Q68.683 975.438 73.1071 979.48 Q77.5631 983.522 77.5631 991.861 Q77.5631 994.949 77.0857 997.686 Q76.6401 1000.42 75.6852 1003 L69.9879 1003 Q71.3884 1000.42 72.0568 997.909 Q72.7252 995.394 72.7252 992.784 Q72.7252 987.023 69.7015 984.159 Q66.7096 981.294 60.6303 981.294 L57.7339 981.294 Q60.885 983.108 62.4446 985.941 Q64.0042 988.774 64.0042 992.721 Q64.0042 999.277 59.0071 1003.29 Q54.01 1007.3 45.7664 1007.3 Q37.491 1007.3 32.4939 1003.29 Q27.4968 999.277 27.4968 992.721 Q27.4968 988.774 29.0564 985.941 Q30.616 983.108 33.7671 981.294 L28.3562 981.294 L28.3562 975.438 L59.58 975.438 Z"
     fill="#000000"
     fill-rule="nonzero"
     fill-opacity="1"
     id="path53" /><path
     clip-path="url(#clip540)"
     d="M33.8307 942.718 Q33.2578 943.705 33.0032 944.882 Q32.7167 946.028 32.7167 947.429 Q32.7167 952.394 35.9632 955.068 Q39.1779 957.709 45.2253 957.709 L64.0042 957.709 L64.0042 963.598 L28.3562 963.598 L28.3562 957.709 L33.8944 957.709 Q30.6479 955.863 29.0883 952.903 Q27.4968 949.943 27.4968 945.71 Q27.4968 945.105 27.5923 944.373 Q27.656 943.641 27.8151 942.75 L33.8307 942.718 Z"
     fill="#000000"
     fill-rule="nonzero"
     fill-opacity="1"
     id="path54" /><path
     clip-path="url(#clip540)"
     d="M32.4621 924.194 Q32.4621 928.905 36.1542 931.642 Q39.8145 934.379 46.212 934.379 Q52.6095 934.379 56.3017 931.674 Q59.9619 928.936 59.9619 924.194 Q59.9619 919.515 56.2698 916.778 Q52.5777 914.041 46.212 914.041 Q39.8781 914.041 36.186 916.778 Q32.4621 919.515 32.4621 924.194 M27.4968 924.194 Q27.4968 916.555 32.4621 912.195 Q37.4273 907.834 46.212 907.834 Q54.9649 907.834 59.9619 912.195 Q64.9272 916.555 64.9272 924.194 Q64.9272 931.865 59.9619 936.225 Q54.9649 940.554 46.212 940.554 Q37.4273 940.554 32.4621 936.225 Q27.4968 931.865 27.4968 924.194 Z"
     fill="#000000"
     fill-rule="nonzero"
     fill-opacity="1"
     id="path55" /><path
     clip-path="url(#clip540)"
     d="M28.3562 901.532 L28.3562 895.676 L56.1743 888.355 L28.3562 881.066 L28.3562 874.159 L56.1743 866.839 L28.3562 859.55 L28.3562 853.694 L64.0042 863.019 L64.0042 869.926 L34.7856 877.597 L64.0042 885.299 L64.0042 892.206 L28.3562 901.532 Z"
     fill="#000000"
     fill-rule="nonzero"
     fill-opacity="1"
     id="path56" /><path
     clip-path="url(#clip540)"
     d="M18.2347 839.021 L28.3562 839.021 L28.3562 826.958 L32.9077 826.958 L32.9077 839.021 L52.2594 839.021 Q56.6199 839.021 57.8613 837.843 Q59.1026 836.634 59.1026 832.973 L59.1026 826.958 L64.0042 826.958 L64.0042 832.973 Q64.0042 839.753 61.4897 842.331 Q58.9434 844.909 52.2594 844.909 L32.9077 844.909 L32.9077 849.206 L28.3562 849.206 L28.3562 844.909 L18.2347 844.909 L18.2347 839.021 Z"
     fill="#000000"
     fill-rule="nonzero"
     fill-opacity="1"
     id="path57" /><path
     clip-path="url(#clip540)"
     d="M42.4881 789.623 L64.0042 789.623 L64.0042 795.479 L42.679 795.479 Q37.6183 795.479 35.1038 797.453 Q32.5894 799.426 32.5894 803.373 Q32.5894 808.115 35.6131 810.852 Q38.6368 813.59 43.8567 813.59 L64.0042 813.59 L64.0042 819.478 L14.479 819.478 L14.479 813.59 L33.8944 813.59 Q30.6797 811.489 29.0883 808.656 Q27.4968 805.792 27.4968 802.068 Q27.4968 795.925 31.3163 792.774 Q35.1038 789.623 42.4881 789.623 Z"
     fill="#000000"
     fill-rule="nonzero"
     fill-opacity="1"
     id="path58" /><path
     clip-path="url(#clip540)"
     d="M33.8307 736.565 Q33.2578 737.551 33.0032 738.729 Q32.7167 739.875 32.7167 741.275 Q32.7167 746.241 35.9632 748.914 Q39.1779 751.556 45.2253 751.556 L64.0042 751.556 L64.0042 757.444 L28.3562 757.444 L28.3562 751.556 L33.8944 751.556 Q30.6479 749.71 29.0883 746.75 Q27.4968 743.79 27.4968 739.557 Q27.4968 738.952 27.5923 738.22 Q27.656 737.488 27.8151 736.597 L33.8307 736.565 Z"
     fill="#000000"
     fill-rule="nonzero"
     fill-opacity="1"
     id="path59" /><path
     clip-path="url(#clip540)"
     d="M46.0847 714.221 Q46.0847 721.319 47.7079 724.056 Q49.3312 726.793 53.2461 726.793 Q56.3653 726.793 58.2114 724.756 Q60.0256 722.687 60.0256 719.154 Q60.0256 714.285 56.5881 711.356 Q53.1188 708.396 47.3897 708.396 L46.0847 708.396 L46.0847 714.221 M43.6657 702.54 L64.0042 702.54 L64.0042 708.396 L58.5933 708.396 Q61.8398 710.402 63.3994 713.394 Q64.9272 716.385 64.9272 720.714 Q64.9272 726.189 61.8716 729.435 Q58.7843 732.65 53.6281 732.65 Q47.6125 732.65 44.5569 728.639 Q41.5014 724.597 41.5014 716.608 L41.5014 708.396 L40.9285 708.396 Q36.8862 708.396 34.6901 711.07 Q32.4621 713.712 32.4621 718.518 Q32.4621 721.573 33.1941 724.47 Q33.9262 727.366 35.3903 730.04 L29.9795 730.04 Q28.7381 726.825 28.1334 723.801 Q27.4968 720.778 27.4968 717.913 Q27.4968 710.179 31.5072 706.359 Q35.5176 702.54 43.6657 702.54 Z"
     fill="#000000"
     fill-rule="nonzero"
     fill-opacity="1"
     id="path60" /><path
     clip-path="url(#clip540)"
     d="M18.2347 684.684 L28.3562 684.684 L28.3562 672.621 L32.9077 672.621 L32.9077 684.684 L52.2594 684.684 Q56.6199 684.684 57.8613 683.507 Q59.1026 682.297 59.1026 678.637 L59.1026 672.621 L64.0042 672.621 L64.0042 678.637 Q64.0042 685.416 61.4897 687.994 Q58.9434 690.572 52.2594 690.572 L32.9077 690.572 L32.9077 694.869 L28.3562 694.869 L28.3562 690.572 L18.2347 690.572 L18.2347 684.684 Z"
     fill="#000000"
     fill-rule="nonzero"
     fill-opacity="1"
     id="path61" /><path
     clip-path="url(#clip540)"
     d="M44.7161 634.427 L47.5806 634.427 L47.5806 661.354 Q53.6281 660.972 56.8109 657.725 Q59.9619 654.447 59.9619 648.622 Q59.9619 645.249 59.1344 642.098 Q58.3069 638.915 56.6518 635.796 L62.1899 635.796 Q63.5267 638.947 64.227 642.257 Q64.9272 645.567 64.9272 648.973 Q64.9272 657.503 59.9619 662.5 Q54.9967 667.465 46.5303 667.465 Q37.7774 667.465 32.6531 662.754 Q27.4968 658.012 27.4968 649.991 Q27.4968 642.798 32.1438 638.628 Q36.7589 634.427 44.7161 634.427 M42.9973 640.283 Q38.1912 640.347 35.3266 642.989 Q32.4621 645.599 32.4621 649.927 Q32.4621 654.829 35.2312 657.789 Q38.0002 660.717 43.0292 661.163 L42.9973 640.283 Z"
     fill="#000000"
     fill-rule="nonzero"
     fill-opacity="1"
     id="path62" /><path
     clip-path="url(#clip540)"
     d="M14.5426 590.026 Q21.8632 594.291 29.0246 596.36 Q36.186 598.429 43.5384 598.429 Q50.8908 598.429 58.1159 596.36 Q65.3091 594.259 72.5979 590.026 L72.5979 595.119 Q65.1182 599.893 57.8931 602.28 Q50.668 604.635 43.5384 604.635 Q36.4406 604.635 29.2474 602.28 Q22.0542 599.925 14.5426 595.119 L14.5426 590.026 Z"
     fill="#000000"
     fill-rule="nonzero"
     fill-opacity="1"
     id="path63" /><path
     clip-path="url(#clip540)"
     d="M42.4881 549.031 L64.0042 549.031 L64.0042 554.887 L42.679 554.887 Q37.6183 554.887 35.1038 556.861 Q32.5894 558.834 32.5894 562.781 Q32.5894 567.523 35.6131 570.261 Q38.6368 572.998 43.8567 572.998 L64.0042 572.998 L64.0042 578.886 L14.479 578.886 L14.479 572.998 L33.8944 572.998 Q30.6797 570.897 29.0883 568.064 Q27.4968 565.2 27.4968 561.476 Q27.4968 555.333 31.3163 552.182 Q35.1038 549.031 42.4881 549.031 Z"
     fill="#000000"
     fill-rule="nonzero"
     fill-opacity="1"
     id="path64" /><path
     clip-path="url(#clip540)"
     d="M29.7885 539.132 L29.7885 513.447 L32.8122 513.447 L32.8122 539.132 L29.7885 539.132 Z"
     fill="#000000"
     fill-rule="nonzero"
     fill-opacity="1"
     id="path65" /><path
     clip-path="url(#clip540)"
     d="M39.2416 504.121 L39.2416 497.628 L19.7943 497.628 L21.0993 504.726 L17.4072 504.726 L16.1659 497.405 L16.1659 493.045 L39.2416 493.045 L39.2416 486.52 L42.7427 486.52 L42.7427 504.121 L39.2416 504.121 Z"
     fill="#000000"
     fill-rule="nonzero"
     fill-opacity="1"
     id="path66" /><path
     clip-path="url(#clip540)"
     d="M14.5426 477.735 L14.5426 472.642 Q22.0542 467.868 29.2474 465.513 Q36.4406 463.126 43.5384 463.126 Q50.668 463.126 57.8931 465.513 Q65.1182 467.868 72.5979 472.642 L72.5979 477.735 Q65.3091 473.502 58.1159 471.433 Q50.8908 469.332 43.5384 469.332 Q36.186 469.332 29.0246 471.433 Q21.8632 473.502 14.5426 477.735 Z"
     fill="#000000"
     fill-rule="nonzero"
     fill-opacity="1"
     id="path67" /><polyline
     clip-path="url(#clip542)"
     style="stroke:#808080; stroke-linecap:round; stroke-linejoin:round; stroke-width:12; stroke-opacity:0.1; fill:none"
     points="308.562,794.009 316.963,582.505 328.964,870.717 337.365,607.437 350.566,597.231 364.968,289.982 386.57,671.721 402.172,257.839 428.575,507.369 451.377,407.742 478.98,416.31 508.984,325.179 544.988,424.839 580.991,478.667 618.195,580.359 654.199,490.223 697.404,586.16 739.409,623.898 782.613,698.06 824.618,630.376 873.823,666.23 924.229,552.834 986.636,797.586 1034.64,759.433 1088.65,824.269 1140.25,880.96 1189.46,968.156 1232.66,986.221 1275.87,1002.91 1319.07,1018.36 1362.28,1096.85 1398.28,981.981 1448.69,1068.56 1490.69,1060.32 1535.1,1034.58 1584.3,1029.85 1635.91,1060.8 1685.11,1072.35 1734.32,1132.29 1776.32,1131.79 1819.53,1084.95 1871.13,1155.34 1913.14,1154.33 1956.34,1167.94 1998.35,1209.02 2034.35,1123.31 2085.95,1144.67 2135.16,1223.76 2171.16,1311.76 2191.57,1338.73 2207.17,1429.65 2205.97,1384.4 2213.17,1423.18 "
     id="polyline67" /><polyline
     clip-path="url(#clip542)"
     style="stroke:#808080; stroke-linecap:round; stroke-linejoin:round; stroke-width:12; stroke-opacity:0.1; fill:none"
     points="279.759,640.592 288.16,393.693 300.161,755.855 308.562,449.997 321.763,451.3 336.165,530.192 350.566,142.58 373.369,449.508 392.571,368.761 415.373,268.719 442.976,292.054 472.98,436.775 501.783,91.7957 544.988,585.067 574.991,318.439 618.195,580.359 654.199,515.099 696.204,561.284 739.409,645.335 781.413,576.827 830.619,730.172 873.823,596.782 929.029,751.784 977.034,805.776 1023.84,780.333 1075.45,843.332 1124.65,859.258 1175.06,961.797 1218.26,908.259 1268.67,1000.21 1311.87,949.424 1362.28,1032.73 1405.48,994.738 1454.69,1050.35 1499.09,1081.76 1541.1,1073.41 1585.5,1102.24 1627.51,1058.75 1676.71,1121.35 1718.72,1121.13 1761.92,1121.14 1806.32,1144.9 1848.33,1144.1 1891.53,1203.4 1926.34,1200.35 1962.34,1154.43 2006.75,1217.03 2041.55,1255.44 2070.35,1347.15 2083.55,1333.99 2099.16,1389.07 2105.16,1423.18 "
     id="polyline68" /><polyline
     clip-path="url(#clip542)"
     style="stroke:#808080; stroke-linecap:round; stroke-linejoin:round; stroke-width:12; stroke-opacity:0.1; fill:none"
     points="294.16,725.64 302.561,497.636 314.562,325.741 330.164,1028.6 336.165,530.192 350.566,206.392 372.169,621.16 387.77,510.119 406.973,132.771 436.976,624.846 457.378,101.548 494.582,498.932 523.385,367.34 559.389,429.107 596.593,539.753 632.597,448.909 675.802,552.077 717.806,727.739 753.81,663.742 795.815,595.463 845.02,744.421 888.225,612.663 943.431,860.268 984.235,811.059 1031.04,699.422 1089.85,852.139 1139.05,790.24 1196.66,971.27 1239.86,918.381 1290.27,940.52 1340.67,1025.67 1383.88,914.563 1441.48,1126.9 1476.29,998.051 1527.89,1032.57 1577.1,1027.88 1628.71,1059.04 1677.91,1121.59 1719.92,1080.08 1769.12,1130.5 1812.33,1083.49 1863.93,1108.77 1913.14,1198.68 1949.14,1166.92 1991.14,1165.68 2034.35,1082.1 2093.16,1388.96 2099.16,1300.87 2120.76,1349.1 2133.96,1376.3 2142.36,1389.81 2148.36,1423.18 2148.36,1383.27 "
     id="polyline69" /><polyline
     clip-path="url(#clip542)"
     style="stroke:#808080; stroke-linecap:round; stroke-linejoin:round; stroke-width:12; stroke-opacity:0.1; fill:none"
     points="315.763,823.402 324.164,1094.57 328.964,418.291 344.566,639.144 357.767,627.111 372.169,680.821 386.57,341.472 409.373,588.089 428.575,507.369 451.377,407.742 478.98,187.772 516.184,553.716 544.988,424.839 580.991,304.861 625.396,593.077 661.4,651.311 697.404,586.16 739.409,623.898 782.613,578.412 831.819,750.023 873.823,666.23 924.229,747.662 972.234,786.732 1020.24,748.582 1074.25,897.9 1118.65,868.972 1167.86,882.985 1218.26,836.627 1275.87,1002.91 1319.07,886.668 1376.68,974.269 1427.08,1113.38 1463.09,896.31 1526.69,1013.51 1578.3,1100.63 1620.3,1092.17 1664.71,1118.97 1706.71,1077.19 1755.92,1136.19 1797.92,1041.38 1855.53,1183.46 1892.73,1158.65 1934.74,1113.92 1985.14,1171.94 2027.15,1170.61 2070.35,1169.49 2114.76,1389.34 2120.76,1302.22 2142.36,1349.91 2155.56,1376.8 2163.96,1390.17 2169.96,1423.18 "
     id="polyline70" /><polyline
     clip-path="url(#clip542)"
     style="stroke:#808080; stroke-linecap:round; stroke-linejoin:round; stroke-width:12; stroke-opacity:0.1; fill:none"
     points="308.562,794.009 316.963,1079.17 321.763,374.054 337.365,607.437 350.566,597.231 364.968,654.904 379.37,306.799 402.172,563.622 421.374,482.643 444.177,382.684 471.78,393.693 501.783,302.808 537.787,406.382 573.791,462.706 610.995,567.245 646.999,476.847 690.203,575.099 732.208,744.886 768.212,681.298 810.216,613.296 859.422,758.096 902.626,627.945 957.832,870.25 998.637,731.624 1052.64,885.414 1097.05,856.442 1146.25,794.758 1203.86,901.283 1254.26,924.911 1304.67,880.049 1362.28,968.976 1412.68,1048.24 1455.89,952.146 1512.29,1066.04 1556.7,1040.52 1605.9,1088.91 1650.31,1064.26 1699.51,1125.78 1741.52,1084.72 1790.72,1039.72 1848.33,1136.45 1892.73,1158.65 1934.74,1113.92 1985.14,1129.44 2034.35,1171.57 2077.55,1211.03 2114.76,1348.87 2127.96,1302.66 2149.56,1310.55 2169.96,1377.14 2178.36,1390.41 2184.37,1462.52 2177.16,1383.84 "
     id="polyline71" /><polyline
     clip-path="url(#clip542)"
     style="stroke:#808080; stroke-linecap:round; stroke-linejoin:round; stroke-width:12; stroke-opacity:0.1; fill:none"
     points="308.562,794.009 316.963,1079.17 321.763,374.054 337.365,607.437 350.566,597.231 364.968,289.982 386.57,671.721 402.172,257.839 428.575,507.369 451.377,407.742 478.98,416.31 508.984,118.135 552.188,631.882 580.991,478.667 618.195,419.271 661.4,651.311 697.404,586.16 739.409,496.151 789.814,706.16 831.819,750.023 873.823,666.23 924.229,649.817 979.435,700.603 1034.64,845.654 1081.45,819.687 1133.05,799.322 1189.46,820.567 1247.06,921.667 1297.47,876.677 1355.08,902.532 1412.68,986.977 1463.09,1003.61 1513.49,971.872 1569.9,971.575 1628.71,1111.58 1670.71,1001.25 1729.52,1131.41 1771.52,1090.94 1820.73,1054.27 1877.13,1103.66 1927.54,1105.39 1979.14,1171.12 2021.15,1128.13 2071.55,1183.21 2113.56,1141.95 2163.96,1220.12 2201.17,1352.02 2214.37,1307.72 2235.97,1353.21 2249.17,1378.88 2257.57,1429.5 2256.37,1461.16 2249.17,1385.2 "
     id="polyline72" /><polyline
     clip-path="url(#clip542)"
     style="stroke:#808080; stroke-linecap:round; stroke-linejoin:round; stroke-width:12; stroke-opacity:0.1; fill:none"
     points="330.164,1343.13 331.364,1108.66 336.165,458.945 351.767,668.477 364.968,654.904 379.37,362.817 400.972,716.284 416.574,611.2 435.776,263.425 465.779,699.022 486.181,437.953 516.184,346.673 552.188,442.637 588.192,494.106 625.396,593.077 661.4,503.226 704.605,596.936 746.609,761.208 782.613,578.412 831.819,750.023 873.823,666.23 924.229,649.817 979.435,792.206 1027.44,840.953 1074.25,815.033 1125.85,873.026 1175.06,886.746 1225.46,911.678 1275.87,1002.91 1319.07,952.319 1369.48,1035.02 1412.68,1048.24 1455.89,1011.17 1505.09,1007.02 1556.7,1151.14 1591.5,1031.8 1643.11,1062.53 1692.31,1124.39 1734.32,1132.29 1776.32,1083.96 1826.73,1132.77 1871.13,1155.34 1913.14,1154.33 1956.34,1167.94 1998.35,1209.02 2034.35,1082.1 2093.16,1226.19 2127.96,1302.66 2149.56,1350.17 2162.76,1376.97 2171.16,1350.96 2184.37,1423.18 2184.37,1462.52 "
     id="polyline73" /><polyline
     clip-path="url(#clip542)"
     style="stroke:#808080; stroke-linecap:round; stroke-linejoin:round; stroke-width:12; stroke-opacity:0.1; fill:none"
     points="308.562,794.009 316.963,1079.17 321.763,374.054 337.365,1044.88 343.366,159.79 364.968,654.904 379.37,306.799 402.172,563.622 421.374,482.643 444.177,644.78 464.579,370.036 494.582,279.507 530.586,586.766 559.389,429.107 596.593,539.753 632.597,448.909 675.802,696.597 710.606,583.218 753.81,663.742 795.815,712.773 837.819,737.371 881.024,604.799 936.23,855.141 977.034,805.776 1023.84,780.333 1075.45,843.332 1124.65,938.071 1167.86,882.985 1218.26,908.259 1268.67,1000.21 1311.87,1015.87 1355.08,966.282 1405.48,1056.4 1447.49,988.684 1499.09,1139.54 1533.89,1015.62 1585.5,1102.24 1627.51,1111.33 1669.51,1068.77 1718.72,1121.13 1761.92,1121.14 1806.32,1097.89 1855.53,1145.28 1898.73,1204.31 1933.54,1026.87 1998.35,1159.64 2042.75,1304.18 2063.15,1339.95 2077.55,1347.43 2090.76,1334.33 2106.36,1429.99 2105.16,1382.39 2112.36,1423.18 "
     id="polyline74" /><polyline
     clip-path="url(#clip542)"
     style="stroke:#808080; stroke-linecap:round; stroke-linejoin:round; stroke-width:12; stroke-opacity:0.1; fill:none"
     points="322.963,850.17 331.364,1108.66 336.165,458.945 351.767,668.477 364.968,654.904 379.37,705.046 393.771,374.054 416.574,611.2 435.776,530.827 458.578,431.621 486.181,666.491 508.984,325.179 544.988,617.394 573.791,462.706 610.995,567.245 646.999,476.847 690.203,715.922 725.007,604.063 768.212,681.298 810.216,728.157 852.221,643.234 902.626,728.471 950.632,769.725 998.637,911.832 1038.24,790.645 1089.85,852.139 1139.05,945.096 1182.26,890.456 1232.66,986.221 1275.87,1002.91 1319.07,952.319 1369.48,971.638 1419.88,1060.55 1461.89,1052.39 1506.29,1026.38 1555.5,966.99 1614.3,1161.84 1649.11,1063.97 1698.31,1125.55 1740.32,1125.21 1783.52,1077.53 1835.13,1103.42 1884.33,1060.26 1941.94,1297.46 1962.34,1204.77 1998.35,1033.68 2064.35,1305.53 2084.75,1340.88 2099.16,1348.28 2112.36,1375.78 2120.76,1389.45 2126.76,1423.18 "
     id="polyline75" /><polyline
     clip-path="url(#clip542)"
     style="stroke:#808080; stroke-linecap:round; stroke-linejoin:round; stroke-width:12; stroke-opacity:0.1; fill:none"
     points="308.562,794.009 316.963,1079.17 321.763,374.054 337.365,607.437 350.566,1002.46 357.767,249.675 379.37,306.799 402.172,878.143 414.173,168.122 444.177,644.78 464.579,370.036 494.582,279.507 530.586,586.766 559.389,429.107 596.593,371.267 639.798,617.394 675.802,552.077 717.806,593.772 761.011,797.709 795.815,595.463 845.02,744.421 888.225,612.663 943.431,860.268 984.235,811.059 1031.04,699.422 1089.85,852.139 1139.05,867.395 1189.46,894.114 1239.86,848.121 1297.47,943.525 1347.87,963.556 1398.28,981.981 1448.69,1068.56 1490.69,1060.32 1535.1,978.85 1591.5,1031.8 1643.11,1062.53 1692.31,1073.98 1741.52,1133.6 1783.52,1085.45 1833.93,1087.82 1885.53,1157.56 1927.54,1156.5 1970.74,1169.96 2012.75,1210.67 2048.75,1125.57 2100.36,1307.7 2120.76,1302.22 2142.36,1429.87 2141.16,1336.58 2156.76,1390.05 2162.76,1462.94 2155.56,1383.42 "
     id="polyline76" /><polyline
     clip-path="url(#clip542)"
     style="stroke:#808080; stroke-linecap:round; stroke-linejoin:round; stroke-width:12; stroke-opacity:0.1; fill:none"
     points="294.16,725.64 302.561,1043.57 307.362,272.758 322.963,535.649 336.165,530.192 350.566,597.231 364.968,593.237 380.57,480.788 399.772,95.369 429.775,603.864 450.177,319.301 480.18,229.866 516.184,553.716 544.988,393.071 582.192,336.629 625.396,593.077 661.4,527.769 703.405,572.393 746.609,654.648 788.614,586.249 837.819,737.371 881.024,604.799 936.23,757.872 984.235,811.059 1031.04,785.531 1082.65,766.03 1139.05,867.395 1189.46,894.114 1239.86,848.121 1297.47,943.525 1347.87,899.435 1405.48,923.227 1463.09,1072.43 1505.09,1064.16 1549.5,983.383 1605.9,1035.65 1657.51,1065.96 1706.71,1077.19 1755.92,1087.73 1805.12,1136.84 1848.33,1090.65 1899.93,1115.21 1949.14,1159.69 1992.34,1215.42 2027.15,1170.61 2070.35,1210.24 2107.56,1308.13 2127.96,1342.69 2142.36,1389.81 2148.36,1376.64 2156.76,1390.05 2162.76,1462.94 2155.56,1423.18 "
     id="polyline77" /><polyline
     clip-path="url(#clip542)"
     style="stroke:#808080; stroke-linecap:round; stroke-linejoin:round; stroke-width:12; stroke-opacity:0.1; fill:none"
     points="286.959,685.56 295.36,448.43 307.362,788.828 315.763,494.796 328.964,54.9745 350.566,597.231 364.968,230.32 387.77,510.119 406.973,428.955 429.775,328.663 457.378,345.266 487.381,479.103 516.184,346.673 552.188,411.41 589.392,354.229 632.597,605.416 668.601,540.09 710.606,583.218 753.81,663.742 795.815,595.463 845.02,635.255 895.426,620.377 950.632,865.304 991.436,725.78 1045.44,795.678 1097.05,856.442 1146.25,871.376 1196.66,824.664 1254.26,924.911 1304.67,946.493 1355.08,966.282 1405.48,984.493 1455.89,1011.17 1505.09,1064.16 1549.5,983.383 1605.9,1088.91 1650.31,1064.26 1699.51,1075.59 1748.72,1086.23 1797.92,1088.39 1848.33,1136.45 1892.73,1113.94 1941.94,1158.63 1985.14,1171.94 2027.15,1170.61 2070.35,1169.49 2114.76,1348.87 2127.96,1342.69 2142.36,1310.15 2162.76,1416.57 2163.96,1390.17 2169.96,1423.18 "
     id="polyline78" /><polyline
     clip-path="url(#clip542)"
     style="stroke:#808080; stroke-linecap:round; stroke-linejoin:round; stroke-width:12; stroke-opacity:0.1; fill:none"
     points="330.164,874.651 338.565,684.145 350.566,933.878 358.967,695.694 372.169,680.821 386.57,727.739 400.972,404.73 423.774,633.066 442.976,553.113 465.779,454.401 493.382,458.685 523.385,367.34 559.389,459.812 595.393,509.048 632.597,605.416 668.601,515.871 711.806,607.437 753.81,642.795 797.015,714.081 839.019,757.009 881.024,673.596 931.43,753.826 979.435,792.206 1027.44,754.052 1081.45,819.687 1133.05,799.322 1189.46,894.114 1239.86,989.093 1283.07,1005.56 1326.27,955.18 1376.68,1100.67 1412.68,1048.24 1455.89,1011.17 1505.09,1007.02 1556.7,1151.14 1591.5,1085.58 1635.91,1113.09 1677.91,1070.7 1727.12,1130.97 1769.12,1082.46 1819.53,1178.3 1856.73,1153.09 1898.73,1107.59 1949.14,1210.43 1983.94,1207.34 2019.95,1038.14 2085.95,1225.46 2120.76,1302.22 2142.36,1310.15 2162.76,1416.57 2163.96,1390.17 2169.96,1383.7 2177.16,1462.66 "
     id="polyline79" /><polyline
     clip-path="url(#clip542)"
     style="stroke:#808080; stroke-linecap:round; stroke-linejoin:round; stroke-width:12; stroke-opacity:0.1; fill:none"
     points="322.963,850.17 331.364,653.112 343.366,914.493 351.767,668.477 364.968,654.904 379.37,705.046 393.771,694.683 409.373,290.571 435.776,530.827 458.578,681.802 478.98,416.31 508.984,325.179 544.988,617.394 573.791,462.706 610.995,403.764 654.199,640.327 690.203,575.099 732.208,614.103 775.413,689.774 817.417,735.602 859.422,651.053 909.827,734.988 957.832,775.494 1005.84,826.381 1052.64,800.631 1104.25,860.681 1153.45,951.919 1196.66,971.27 1239.86,848.121 1297.47,1010.78 1340.67,1090.94 1376.68,974.269 1427.08,1062.58 1469.09,995.747 1520.69,1087.12 1562.7,1078.73 1607.1,1106.98 1649.11,1115.81 1691.11,1073.71 1740.32,1125.21 1783.52,1172.91 1820.73,1147.29 1862.73,1192.08 1898.73,1159.56 1940.74,1202.14 1976.74,1071.43 2035.55,1054.96 2099.16,1341.49 2113.56,1389.32 2119.56,1295.46 2142.36,1389.81 2148.36,1343.51 2162.76,1502.85 "
     id="polyline80" /><polyline
     clip-path="url(#clip542)"
     style="stroke:#808080; stroke-linecap:round; stroke-linejoin:round; stroke-width:12; stroke-opacity:0.1; fill:none"
     points="337.365,1346.47 338.565,684.145 350.566,531.12 366.168,721.015 379.37,2191.46 364.968,654.904 379.37,306.799 402.172,878.143 414.173,168.122 444.177,644.78 464.579,370.036 494.582,498.932 523.385,570.561 552.188,411.41 589.392,354.229 632.597,605.416 668.601,540.09 710.606,718.836 746.609,654.648 788.614,704.822 830.619,730.172 873.823,596.782 929.029,751.784 977.034,898.536 1016.64,687.573 1075.45,926.304 1117.45,934.481 1160.65,879.17 1211.06,977.371 1254.26,994.726 1297.47,1010.78 1340.67,960.797 1391.08,1052.17 1433.08,983.844 1484.69,1020 1533.89,1071.59 1578.3,1155.25 1613.1,1055.18 1662.31,1118.49 1704.31,1118.34 1747.52,1069.79 1799.12,1191.1 1833.93,1141.72 1877.13,1201.57 1911.94,1154.14 1955.14,1024.45 2021.15,1218.61 2055.95,1339.63 2070.35,1347.15 2083.55,1333.99 2099.16,1348.28 2112.36,1382.54 2119.56,1463.82 "
     id="polyline81" /><polyline
     clip-path="url(#clip542)"
     style="stroke:#808080; stroke-linecap:round; stroke-linejoin:round; stroke-width:12; stroke-opacity:0.1; fill:none"
     points="344.566,917.829 352.967,1144.49 357.767,563.299 373.369,744.633 386.57,727.739 400.972,769.077 415.373,755.855 430.975,653.785 450.177,574.312 472.98,476.158 500.583,478.562 530.586,586.766 559.389,459.812 595.393,509.048 632.597,925.269 654.199,640.327 690.203,575.099 732.208,744.886 768.212,558.991 817.417,735.602 859.422,758.096 902.626,728.471 950.632,769.725 998.637,821.359 1045.44,795.678 1097.05,856.442 1146.25,794.758 1203.86,828.705 1261.47,997.488 1304.67,880.049 1362.28,1032.73 1405.48,984.493 1455.89,952.146 1512.29,952.662 1571.1,1099 1613.1,1143.81 1650.31,1116.06 1692.31,1175.04 1727.12,1180.51 1761.92,1177.65 1797.92,1080.54 1849.53,1197.97 1884.33,1194.96 1920.34,1162.77 1962.34,1075.77 2019.95,1246.49 2049.95,1304.63 2070.35,1340.26 2084.75,1388.81 2090.76,1375.25 2099.16,1430.01 2097.96,1423.18 "
     id="polyline82" /><polyline
     clip-path="url(#clip542)"
     style="stroke:#808080; stroke-linecap:round; stroke-linejoin:round; stroke-width:12; stroke-opacity:0.1; fill:none"
     points="315.763,823.402 324.164,619.357 336.165,893.508 344.566,639.144 357.767,627.111 372.169,680.821 386.57,341.472 409.373,588.089 428.575,507.369 451.377,407.742 478.98,649.693 501.783,302.808 537.787,602.366 566.59,446.195 603.794,387.771 646.999,629.026 683.003,563.742 725.007,736.42 761.011,548.941 810.216,728.157 852.221,643.234 902.626,728.471 950.632,769.725 998.637,821.359 1045.44,795.678 1097.05,856.442 1146.25,871.376 1196.66,824.664 1254.26,855.536 1311.87,949.424 1362.28,968.976 1412.68,986.977 1463.09,1013.41 1512.29,1009.21 1563.9,1042.45 1613.1,1037.54 1664.71,1118.97 1706.71,1077.19 1755.92,1136.19 1797.92,1135.59 1841.13,1089.24 1892.73,1158.65 1934.74,1201.4 1970.74,1212.95 2005.55,1083.81 2063.15,1168.54 2107.56,1348.6 2120.76,1342.39 2135.16,1389.69 2141.16,1376.47 2149.56,1429.84 2148.36,1423.18 2148.36,1463.23 "
     id="polyline83" /><polyline
     clip-path="url(#clip542)"
     style="stroke:#808080; stroke-linecap:round; stroke-linejoin:round; stroke-width:12; stroke-opacity:0.1; fill:none"
     points="301.361,761.587 309.762,542.111 321.763,374.054 337.365,607.437 350.566,1002.46 357.767,249.675 379.37,306.799 402.172,878.143 414.173,168.122 444.177,644.78 464.579,370.036 494.582,498.932 523.385,167.804 566.59,446.195 603.794,553.716 639.798,463.081 683.003,563.742 725.007,604.063 768.212,804.978 803.016,604.476 852.221,643.234 902.626,728.471 950.632,769.725 998.637,731.624 1052.64,885.414 1097.05,775.899 1153.45,875.301 1203.86,828.705 1261.47,859.172 1319.07,952.319 1369.48,908.617 1427.08,991.861 1477.49,959.742 1533.89,1015.62 1585.5,1102.24 1627.51,1041.28 1679.11,1070.98 1728.32,1131.19 1770.32,1090.7 1819.53,1092.69 1869.93,1094.8 1921.54,1162.94 1963.54,1204.91 1999.55,1173.89 2041.55,1131.3 2091.96,1212.6 2129.16,1309.39 2149.56,1343.56 2163.96,1390.17 2169.96,1416.59 2171.16,1429.77 2169.96,1383.7 2177.16,1462.66 "
     id="polyline84" /><polyline
     clip-path="url(#clip542)"
     style="stroke:#808080; stroke-linecap:round; stroke-linejoin:round; stroke-width:12; stroke-opacity:0.1; fill:none"
     points="402.172,1038.84 410.573,1209.44 415.373,755.855 430.975,888.495 444.177,868.063 458.578,894.719 472.98,635.114 495.782,800.683 514.984,726.967 537.787,635.372 565.39,626.342 595.393,537.382 631.397,762.532 660.2,624.626 697.404,563.156 740.609,754.503 776.613,691.168 818.617,717.833 861.822,671.336 911.027,819.643 953.032,835.103 996.237,714.762 1051.44,842.175 1099.45,884.775 1146.25,782.04 1205.06,914.001 1254.26,924.911 1304.67,1013.34 1347.87,1028.05 1391.08,979.44 1441.48,1116.83 1477.49,1066.47 1520.69,1087.12 1562.7,1023.88 1614.3,1108.53 1656.31,1100.05 1700.71,1126.01 1742.72,1084.97 1791.92,1142.46 1833.93,1095.51 1884.33,1187.43 1921.54,1162.94 1963.54,1161.78 2006.75,1174.85 2048.75,1173.47 2091.96,1092.15 2150.76,1192.68 2192.77,1306.49 2214.37,1352.47 2227.57,1340.2 2243.17,1391.43 2249.17,1423.18 "
     id="polyline85" /><polyline
     clip-path="url(#clip542)"
     style="stroke:#808080; stroke-linecap:round; stroke-linejoin:round; stroke-width:12; stroke-opacity:0.1; fill:none"
     points="315.763,334.1 331.364,1108.66 336.165,458.945 351.767,1073.71 357.767,249.675 379.37,705.046 393.771,694.683 409.373,588.089 428.575,233.309 458.578,431.621 486.181,437.953 516.184,553.716 544.988,424.839 580.991,478.667 618.195,580.359 654.199,490.223 697.404,725.204 732.208,614.103 775.413,689.774 817.417,735.602 859.422,758.096 902.626,627.945 957.832,775.494 1005.84,826.381 1052.64,885.414 1097.05,775.899 1153.45,875.301 1203.86,828.705 1261.47,928.113 1311.87,883.379 1369.48,1035.02 1412.68,1048.24 1455.89,952.146 1512.29,1009.21 1563.9,1152.53 1598.7,1087.26 1643.11,1114.58 1685.11,1072.35 1734.32,1132.29 1776.32,1083.96 1826.73,1132.77 1871.13,1155.34 1913.14,1154.33 1956.34,1211.28 1991.14,1081.17 2048.75,1249.17 2078.75,1347.48 2091.96,1341.19 2106.36,1348.55 2119.56,1416.42 2120.76,1389.45 2126.76,1463.67 2119.56,1423.18 "
     id="polyline86" /><polyline
     clip-path="url(#clip542)"
     style="stroke:#808080; stroke-linecap:round; stroke-linejoin:round; stroke-width:12; stroke-opacity:0.1; fill:none"
     points="351.767,936.966 360.167,1154.69 364.968,593.237 380.57,766.712 393.771,749.041 408.173,787.956 422.574,774.024 438.176,404.956 464.579,613.754 487.381,746.195 507.783,712.773 530.586,387.229 566.59,659.348 595.393,509.048 632.597,605.416 668.601,515.871 711.806,607.437 753.81,769.077 789.814,587.799 839.019,757.009 881.024,777.605 924.229,649.817 979.435,884.577 1020.24,836.175 1067.04,810.307 1118.65,868.972 1167.86,882.985 1218.26,908.259 1268.67,931.274 1319.07,952.319 1369.48,1035.02 1412.68,986.977 1463.09,1013.41 1512.29,1066.04 1556.7,1095.69 1598.7,1033.73 1650.31,1116.06 1692.31,1124.39 1734.32,1083.19 1783.52,1133.07 1826.73,1132.77 1871.13,1246.44 1898.73,1152.12 1941.94,1165.9 1983.94,1207.34 2019.95,1038.14 2085.95,1306.84 2106.36,1341.79 2120.76,1349.1 2133.96,1376.3 2142.36,1389.81 2148.36,1383.27 2155.56,1463.09 "
     id="polyline87" /><polyline
     clip-path="url(#clip542)"
     style="stroke:#808080; stroke-linecap:round; stroke-linejoin:round; stroke-width:12; stroke-opacity:0.1; fill:none"
     points="301.361,761.587 309.762,542.111 321.763,845.876 330.164,573.057 343.366,565.019 357.767,627.111 372.169,269.827 394.971,861.452 406.973,132.771 436.976,356.357 464.579,370.036 494.582,498.932 523.385,367.34 559.389,429.107 596.593,539.753 632.597,605.416 668.601,540.09 710.606,583.218 753.81,663.742 795.815,712.773 837.819,627.111 888.225,715.059 936.23,757.872 984.235,719.836 1038.24,790.645 1089.85,852.139 1139.05,867.395 1189.46,820.567 1247.06,851.852 1304.67,946.493 1355.08,966.282 1405.48,984.493 1455.89,1011.17 1505.09,1064.16 1549.5,1094.01 1591.5,1031.8 1643.11,1114.58 1685.11,1123 1727.12,1130.97 1769.12,1082.46 1819.53,1131.52 1863.93,1199.87 1898.73,1196.84 1934.74,1164.86 1976.74,1163.66 2019.95,1079.5 2078.75,1306.41 2099.16,1341.49 2113.56,1389.32 2119.56,1375.95 2127.96,1389.57 2133.96,1423.18 "
     id="polyline88" /><polyline
     clip-path="url(#clip542)"
     style="stroke:#808080; stroke-linecap:round; stroke-linejoin:round; stroke-width:12; stroke-opacity:0.1; fill:none"
     points="308.562,794.009 316.963,1079.17 321.763,374.054 337.365,607.437 350.566,597.231 364.968,654.904 379.37,647.264 394.971,537.679 414.173,456.544 436.976,356.357 464.579,370.036 494.582,498.932 523.385,367.34 559.389,246.659 603.794,553.716 639.798,617.394 675.802,696.597 710.606,583.218 753.81,663.742 795.815,595.463 845.02,744.421 888.225,715.059 936.23,757.872 984.235,811.059 1031.04,785.531 1082.65,847.769 1131.85,785.656 1189.46,894.114 1239.86,848.121 1297.47,876.677 1355.08,966.282 1405.48,984.493 1455.89,1011.17 1505.09,1064.16 1549.5,1038.56 1598.7,1033.73 1650.31,1116.06 1692.31,1073.98 1741.52,1133.6 1783.52,1085.45 1833.93,1134.01 1878.33,1156.46 1920.34,1199.59 1956.34,1167.94 1998.35,998.947 2070.35,1333.38 2085.95,1347.76 2099.16,1341.49 2113.56,1348.83 2126.76,1416.45 2127.96,1429.91 2126.76,1423.18 "
     id="polyline89" /><polyline
     clip-path="url(#clip542)"
     style="stroke:#808080; stroke-linecap:round; stroke-linejoin:round; stroke-width:12; stroke-opacity:0.1; fill:none"
     points="330.164,874.651 338.565,263.425 357.767,1354.6 358.967,695.694 372.169,680.821 386.57,395.83 408.173,433.662 430.975,936.043 442.976,553.113 465.779,454.401 493.382,458.685 523.385,367.34 559.389,459.812 595.393,509.048 632.597,448.909 675.802,528.174 719.006,751.642 753.81,642.795 797.015,714.081 839.019,646.75 888.225,783.856 931.43,656.843 986.636,797.586 1034.64,845.654 1081.45,819.687 1133.05,877.022 1182.26,816.414 1239.86,848.121 1297.47,943.525 1347.87,899.435 1405.48,984.493 1455.89,1001.31 1506.29,969.497 1562.7,1023.88 1614.3,1055.48 1663.51,1101.58 1707.91,1077.45 1757.12,1087.98 1806.32,1144.9 1848.33,1098.27 1898.73,1144.69 1943.14,1166.07 1985.14,1207.48 2021.15,1176.76 2063.15,1053.49 2127.96,1256.14 2157.96,1350.48 2171.16,1344.41 2185.57,1390.53 2191.57,1377.63 2199.97,1429.68 2198.77,1423.18 2198.77,1462.24 "
     id="polyline90" /><polyline
     clip-path="url(#clip542)"
     style="stroke:#808080; stroke-linecap:round; stroke-linejoin:round; stroke-width:12; stroke-opacity:0.1; fill:none"
     points="344.566,502.403 360.167,763.852 372.169,621.16 387.77,787.4 400.972,456.047 422.574,534.2 444.177,556.719 466.979,742.964 486.181,666.491 508.984,571.757 536.587,566.801 566.59,476.394 602.594,551.42 638.598,589.492 675.802,672.378 711.806,720.336 747.81,656.179 789.814,686.344 833.019,751.198 875.023,789.871 917.028,807.694 960.233,683.713 1015.44,818.221 1063.44,863.721 1110.25,837.61 1161.85,892.44 1211.06,904.794 1261.47,859.172 1319.07,952.319 1369.48,971.638 1419.88,989.433 1470.29,1005.88 1520.69,974.222 1577.1,1027.88 1628.71,1111.58 1670.71,1052.06 1722.32,1080.6 1771.52,1138.94 1813.53,1099.29 1862.73,1100.99 1913.14,1146.95 1957.54,1168.11 1999.55,1166.85 2042.75,1179.56 2084.75,1057.58 2149.56,1336.95 2165.16,1350.74 2178.36,1344.69 2192.77,1390.64 2198.77,1416.68 2199.97,1390.76 2205.97,1462.1 2198.77,1423.18 "
     id="polyline91" /><polyline
     clip-path="url(#clip542)"
     style="stroke:#808080; stroke-linecap:round; stroke-linejoin:round; stroke-width:12; stroke-opacity:0.1; fill:none"
     points="337.365,897.125 345.766,712.773 357.767,563.299 373.369,391.421 393.771,749.041 408.173,787.956 422.574,486.856 445.377,430.028 471.78,632.132 494.582,535.932 522.185,533.561 552.188,631.882 580.991,507.903 616.995,551.122 654.199,640.327 690.203,551.803 733.408,768.182 768.212,660.819 811.416,729.409 853.421,770.555 895.426,687.908 945.831,765.821 993.836,802.876 1041.84,936.5 1081.45,738.048 1140.25,880.96 1189.46,894.114 1239.86,848.121 1297.47,876.677 1355.08,966.282 1405.48,1046.1 1448.69,998.986 1499.09,967.097 1555.5,1076.97 1599.9,1159.24 1634.71,1043.12 1686.31,1072.62 1735.52,1132.51 1777.52,1139.99 1819.53,1092.69 1869.93,1140.04 1914.34,1161.88 1956.34,1204.05 1992.34,1172.92 2034.35,1006.97 2106.36,1335.04 2121.96,1308.97 2142.36,1383.15 2149.56,1389.93 2155.56,1416.54 2156.76,1390.05 2162.76,1423.18 "
     id="polyline92" /><polyline
     clip-path="url(#clip542)"
     style="stroke:#808080; stroke-linecap:round; stroke-linejoin:round; stroke-width:12; stroke-opacity:0.1; fill:none"
     points="315.763,334.1 331.364,653.112 343.366,496.437 358.967,695.694 372.169,680.821 386.57,727.739 400.972,404.73 423.774,350.807 450.177,574.312 472.98,476.158 500.583,478.562 530.586,387.229 566.59,476.394 602.594,692.002 632.597,448.909 675.802,672.378 711.806,743.055 746.609,633.46 789.814,706.16 831.819,750.023 873.823,666.23 924.229,747.662 972.234,879.884 1013.04,831.319 1059.84,805.507 1111.45,864.857 1160.65,803.603 1218.26,908.259 1268.67,862.763 1326.27,955.18 1376.68,974.269 1427.08,991.861 1477.49,1017.83 1526.69,1013.51 1578.3,1155.25 1613.1,1037.54 1664.71,1067.65 1713.91,1128.51 1755.92,1136.19 1797.92,1088.39 1848.33,1136.45 1892.73,1158.65 1934.74,1157.57 1977.94,1213.78 2012.75,1002.19 2084.75,1293.16 2107.56,1308.13 2127.96,1382.86 2135.16,1389.69 2141.16,1376.47 2149.56,1429.84 2148.36,1423.18 "
     id="polyline93" /><polyline
     clip-path="url(#clip542)"
     style="stroke:#808080; stroke-linecap:round; stroke-linejoin:round; stroke-width:12; stroke-opacity:0.1; fill:none"
     points="315.763,334.1 331.364,653.112 343.366,496.437 358.967,695.694 372.169,680.821 386.57,395.83 408.173,433.662 430.975,653.785 450.177,319.301 480.18,731.169 500.583,263.425 537.787,602.366 566.59,476.394 602.594,523.517 639.798,617.394 675.802,672.378 711.806,607.437 753.81,642.795 797.015,714.081 839.019,757.009 881.024,673.596 931.43,753.826 979.435,792.206 1027.44,754.052 1081.45,901.935 1125.85,794.774 1182.26,816.414 1239.86,848.121 1297.47,943.525 1347.87,899.435 1405.48,984.493 1455.89,942.34 1513.49,1085.35 1555.5,966.99 1614.3,1055.48 1663.51,1101.58 1707.91,1027.76 1764.32,1137.68 1806.32,1097.89 1855.53,1145.28 1898.73,1144.69 1943.14,1166.07 1985.14,1164.84 2028.35,1177.7 2070.35,1095.19 2127.96,1296 2150.76,1350.22 2163.96,1344.13 2178.36,1390.41 2184.37,1377.46 2192.77,1429.7 2191.57,1423.18 "
     id="polyline94" /><polyline
     clip-path="url(#clip542)"
     style="stroke:#808080; stroke-linecap:round; stroke-linejoin:round; stroke-width:12; stroke-opacity:0.1; fill:none"
     points="315.763,334.1 331.364,653.112 343.366,496.437 358.967,695.694 372.169,680.821 386.57,395.83 408.173,433.662 430.975,653.785 450.177,574.312 472.98,476.158 500.583,478.562 530.586,586.766 559.389,645.858 588.192,494.106 625.396,593.077 661.4,651.311 697.404,725.204 732.208,614.103 775.413,689.774 817.417,850.464 852.221,643.234 902.626,728.471 950.632,865.304 991.436,907.476 1031.04,785.531 1082.65,847.769 1131.85,863.357 1182.26,816.414 1239.86,918.381 1290.27,873.264 1347.87,963.556 1398.28,920.372 1455.89,952.146 1512.29,1123.18 1549.5,1038.56 1598.7,1033.73 1650.31,1064.26 1699.51,1125.78 1741.52,1084.72 1790.72,1134.34 1833.93,1087.82 1885.53,1157.56 1927.54,1156.5 1970.74,1169.96 2012.75,1126.81 2063.15,1333.04 2078.75,1347.48 2091.96,1382.11 2099.16,1430.01 2097.96,1375.42 2106.36,1429.99 2105.16,1423.18 2105.16,1464.13 "
     id="polyline95" /><polyline
     clip-path="url(#clip542)"
     style="stroke:#808080; stroke-linecap:round; stroke-linejoin:round; stroke-width:12; stroke-opacity:0.1; fill:none"
     points="351.767,536.649 367.368,786.732 379.37,647.264 394.971,484.63 415.373,805.776 429.775,557.517 451.377,577.745 474.18,519.072 500.583,697.988 523.385,400.951 558.189,612.247 588.192,522.884 624.196,590.984 660.2,774.731 690.203,551.803 733.408,746.277 769.412,682.724 811.416,825.882 847.42,655.993 896.626,911.111 931.43,818.959 974.634,696.453 1029.84,828.036 1077.85,955.309 1117.45,841.925 1169.06,821.108 1225.46,840.509 1283.07,869.807 1340.67,896.3 1398.28,981.981 1448.69,998.986 1499.09,957.596 1556.7,1095.69 1598.7,980.472 1657.51,1117.52 1699.51,1009.03 1758.32,1040.06 1814.73,1099.52 1863.93,1063.5 1920.34,1111.42 1970.74,1070.28 2029.55,1177.86 2071.55,1095.39 2129.16,1150.72 2178.36,1150.9 2228.77,1340.25 2244.37,1353.49 2257.57,1347.66 2271.98,1391.86 2277.98,1379.49 2286.38,1392.08 2292.38,1423.18 "
     id="polyline96" /><polyline
     clip-path="url(#clip542)"
     style="stroke:#e26f46; stroke-linecap:round; stroke-linejoin:round; stroke-width:12; stroke-opacity:1; fill:none"
     points="318.684,767.231 328.075,816.732 337.269,592.008 350.722,679.727 363.647,670.173 377.659,569.036 394.758,481.374 415.215,589.441 434.844,438.616 460.023,511.143 485.444,432.303 515.558,426.88 548.697,488.298 582.643,485.51 619.712,527.523 658.195,585.465 697.135,621.676 737.272,650.349 778.84,674.035 822.019,708.203 866.061,710.615 912.895,677.836 965.238,803.283 1011.55,821.139 1059.1,804.75 1110.73,848.569 1161.37,869.648 1212.72,888.716 1264.81,922.558 1315.95,944.844 1367.03,1000.27 1414.08,993.534 1463.77,1015.96 1512.69,1026.7 1562.09,1078.29 1606.54,1053.6 1655.73,1091.84 1701.26,1100.93 1746.88,1112.09 1792.21,1106.43 1839.69,1121.21 1886.25,1157.64 1928.26,1158.26 1971.19,1183.24 2010.98,1134.13 2060.07,1182.86 2101.88,1299.13 2123.83,1329.16 2140.62,1365.8 2150.95,1375.27 2159.61,1401.98 2163.45,1420.43 2163.95,1431.23 "
     id="polyline97" /><image
     width="557.06512"
     height="524.29663"
     preserveAspectRatio="none"
     style="image-rendering:optimizeQuality"
     xlink:href="../../../Supernote/EXPORT/20240626_230013(2).png"
     id="image1"
     x="488.8237"
     y="-18.752737" /><image
     width="773.29303"
     height="846.94"
     preserveAspectRatio="none"
     style="image-rendering:optimizeQuality"
     xlink:href="../../../Supernote/EXPORT/20240626_230013(1).png"
     id="image1-7"
     x="1695.8661"
     y="313.02521" /><image
     width="691.28973"
     height="721.34589"
     preserveAspectRatio="none"
     style="image-rendering:optimizeQuality"
     xlink:href="../../../Supernote/EXPORT/20240626_230013(1)(1).png"
     id="image1-6"
     x="1022.5682"
     y="144.87096" /></svg>
